<svg width="22" height="17" viewBox="0 0 22 17" fill="none" xmlns="http://www.w3.org/2000/svg">
<path d="M19.5376 16.5009C19.9911 16.5066 20.43 16.3409 20.7666 16.0369L14.8146 10.0879L14.4026 10.3879C13.9573 10.7159 13.5959 10.9715 13.3186 11.1549C12.9679 11.3766 12.5973 11.5651 12.2116 11.7179C11.805 11.8976 11.367 11.9951 10.9226 12.0049H10.8996C10.4552 11.9951 10.0172 11.8976 9.61059 11.7179C9.22483 11.5652 8.85421 11.3767 8.50359 11.1549C8.22626 10.9715 7.86493 10.7159 7.41959 10.3879C7.29559 10.2969 7.15759 10.1969 7.00859 10.0879L1.05859 16.0389C1.39518 16.3429 1.8341 16.5086 2.28759 16.5029L19.5376 16.5009Z" fill="white"/>
<path d="M1.59904 6.34227C1.16302 6.05345 0.765209 5.71074 0.415039 5.32227L0.415039 14.3743L5.65904 9.13028C4.60971 8.39761 3.25637 7.46827 1.59904 6.34227Z" fill="white"/>
<path d="M20.2419 6.34227C18.6459 7.42227 17.2892 8.35228 16.1719 9.13228L21.4129 14.3743V5.32227C21.0649 5.70807 20.6718 6.05055 20.2419 6.34227Z" fill="white"/>
<path d="M19.5376 0.00268454H2.2896C2.02663 -0.0122297 1.76386 0.0351535 1.52267 0.140979C1.28148 0.246804 1.06868 0.408082 0.901598 0.611686C0.567649 1.04751 0.395818 1.58598 0.415598 2.13468C0.452292 2.72347 0.67817 3.28465 1.0596 3.73468C1.4377 4.25942 1.90073 4.71738 2.4296 5.08968C2.69626 5.27702 3.49626 5.83368 4.8296 6.75968C5.5506 7.25968 6.1776 7.69469 6.7166 8.07069C7.1756 8.39069 7.5726 8.67068 7.8996 8.89768L8.0746 9.02268L8.3976 9.25568C8.6516 9.43902 8.8626 9.58735 9.0306 9.70068C9.1986 9.81402 9.4016 9.94102 9.6396 10.0817C9.85258 10.2103 10.0785 10.3162 10.3136 10.3977C10.502 10.4639 10.6999 10.4993 10.8996 10.5027H10.9226C11.1223 10.4993 11.3201 10.4638 11.5086 10.3977C11.7437 10.3163 11.9696 10.2104 12.1826 10.0817C12.4206 9.94102 12.6236 9.81402 12.7916 9.70068C12.9596 9.58735 13.1706 9.43902 13.4246 9.25568L13.7476 9.02268L13.9226 8.89768L15.1086 8.07368L19.4086 5.08968C19.9691 4.70086 20.4535 4.21243 20.8376 3.64868C21.2048 3.13075 21.4041 2.51256 21.4086 1.87768C21.4047 1.38162 21.2059 0.906978 20.8551 0.556193C20.5043 0.205409 20.0297 0.00660621 19.5336 0.00268454H19.5376Z" fill="white"/>
</svg>
