<svg width="20" height="19" viewBox="0 0 20 19" fill="none" xmlns="http://www.w3.org/2000/svg">
<path d="M16.7571 4.91204e-06H2.96009C2.6257 -0.000257864 2.29455 0.0653766 1.98554 0.193157C1.67654 0.320938 1.39574 0.508359 1.15921 0.744711C0.922669 0.981062 0.735027 1.26171 0.607004 1.57061C0.47898 1.87952 0.413086 2.21062 0.413086 2.54501L0.413086 16.345C0.413086 17.02 0.681219 17.6673 1.1585 18.1446C1.63578 18.6219 2.28311 18.89 2.95809 18.89H9.75809L9.77009 12.141H8.02309C7.91363 12.141 7.80863 12.0977 7.73105 12.0205C7.65347 11.9432 7.60961 11.8385 7.60909 11.729L7.60109 9.55C7.60082 9.44038 7.64405 9.33512 7.72128 9.25732C7.79852 9.17952 7.90346 9.13553 8.01309 9.135H9.76309V7.035C9.71322 6.53664 9.77295 6.03339 9.93808 5.56054C10.1032 5.08768 10.3697 4.65666 10.719 4.29768C11.0683 3.93869 11.4918 3.66043 11.96 3.48239C12.4281 3.30435 12.9295 3.23083 13.4291 3.267H15.2131C15.3229 3.267 15.4282 3.31062 15.5058 3.38826C15.5835 3.4659 15.6271 3.57121 15.6271 3.68101V5.513C15.6271 5.6228 15.5835 5.72811 15.5058 5.80575C15.4282 5.88339 15.3229 5.927 15.2131 5.927H14.1131C12.9291 5.927 12.7001 6.48901 12.7001 7.315V9.135H15.3001C15.3585 9.13503 15.4162 9.14742 15.4695 9.17135C15.5228 9.19527 15.5704 9.2302 15.6092 9.27383C15.648 9.31747 15.6772 9.36882 15.6947 9.42452C15.7123 9.48021 15.7179 9.539 15.7111 9.597L15.4531 11.773C15.4411 11.8736 15.3926 11.9663 15.3169 12.0336C15.2412 12.1008 15.1434 12.138 15.0421 12.138H12.7201L12.7131 18.888H16.7621C17.4371 18.888 18.0844 18.6199 18.5617 18.1426C19.039 17.6653 19.3071 17.018 19.3071 16.343V2.54501C19.3071 2.21037 19.2411 1.87902 19.1129 1.56992C18.9847 1.26082 18.7968 0.980039 18.5599 0.743648C18.3231 0.507257 18.0419 0.319898 17.7326 0.192295C17.4232 0.0646907 17.0917 -0.000652525 16.7571 4.91204e-06Z" fill="white"/>
</svg>
