<svg width="59" height="55" viewBox="0 0 59 55" fill="none" xmlns="http://www.w3.org/2000/svg">
<ellipse cx="33.7773" cy="24.5" rx="25.1293" ry="24.5" fill="url(#paint0_linear_1_686)"/>
<path d="M16.0682 34.625C20.4937 34.625 24.0813 31.1272 24.0813 26.8125C24.0813 22.4978 20.4937 19 16.0682 19C11.6426 19 8.055 22.4978 8.055 26.8125C8.055 31.1272 11.6426 34.625 16.0682 34.625Z" fill="#426AB3"/>
<path d="M17.0193 41.6562H15.1162L14.122 48.8934L16.0677 51.2647L18.0135 48.8934L17.0193 41.6562Z" fill="#426AB3"/>
<path d="M15.0835 39.3125H17.0537L17.4543 36.9688H14.6829L15.0835 39.3125Z" fill="#426AB3"/>
<path d="M11.6715 49.0788L12.8495 40.5034L12.2453 36.9688H10.0582C4.7476 36.9688 0.442444 41.1661 0.442444 46.3438V53.1406C0.442444 53.7878 0.980608 54.3125 1.64442 54.3125H15.4904L11.9243 49.9664C11.7193 49.7166 11.6279 49.3959 11.6715 49.0788Z" fill="#426AB3"/>
<path d="M24.2868 37.2188C23.5777 37.056 22.8385 36.9688 22.0783 36.9688H19.8913L19.2871 40.5034L20.4651 49.0788C20.5087 49.3959 20.4174 49.7166 20.2124 49.9665L16.6461 54.3125H22.8829C22.1266 53.3325 21.6777 52.1149 21.6777 50.7969V42.0469C21.6777 40.0458 22.7122 38.2763 24.2868 37.2188Z" fill="#426AB3"/>
<path d="M37.864 38.5312H37.1829V36.5781C37.1829 35.0704 35.9247 33.8438 34.3782 33.8438H31.173C29.6265 33.8438 28.3684 35.0704 28.3684 36.5781V38.5312H27.6873C25.6957 38.5312 24.0813 40.1052 24.0813 42.0469V42.8281H41.4699V42.0469C41.4699 40.1052 39.8555 38.5312 37.864 38.5312ZM34.7789 38.5312H30.7723V36.5781C30.7723 36.3627 30.9521 36.1875 31.173 36.1875H34.3782C34.5992 36.1875 34.7789 36.3627 34.7789 36.5781V38.5312Z" fill="#426AB3"/>
<path d="M24.0813 50.7969C24.0813 52.7385 25.6957 54.3125 27.6873 54.3125H37.864C39.8555 54.3125 41.4699 52.7385 41.4699 50.7969V45.1719H24.0813V50.7969Z" fill="#426AB3"/>
<defs>
<linearGradient id="paint0_linear_1_686" x1="33.7773" y1="0" x2="33.7773" y2="49" gradientUnits="userSpaceOnUse">
<stop stop-color="#4BA6DD" stop-opacity="0.36"/>
<stop offset="1" stop-color="#4BA6DD" stop-opacity="0"/>
</linearGradient>
</defs>
</svg>
