<svg width="51" height="55" viewBox="0 0 51 55" fill="none" xmlns="http://www.w3.org/2000/svg">
<ellipse cx="25.3919" cy="24.5" rx="25.1293" ry="24.5" fill="url(#paint0_linear_1_679)"/>
<path d="M14.6221 19C10.9512 19.0047 7.4321 20.4286 4.83639 22.9593C2.24067 25.49 0.78026 28.921 0.775391 32.5C0.775391 42.1919 13.6759 54.3306 14.224 54.8425C14.3307 54.9435 14.4735 55 14.6221 55C14.7708 55 14.9136 54.9435 15.0202 54.8425C15.5683 54.3306 28.4689 42.1919 28.4689 32.5C28.464 28.921 27.0036 25.49 24.4079 22.9593C21.8122 20.4286 18.293 19.0047 14.6221 19V19ZM14.6221 38.6875C13.3669 38.6875 12.1399 38.3246 11.0963 37.6447C10.0526 36.9648 9.23915 35.9985 8.7588 34.8679C8.27846 33.7372 8.15278 32.4931 8.39766 31.2929C8.64253 30.0926 9.24697 28.9901 10.1345 28.1248C11.0221 27.2594 12.1529 26.6701 13.384 26.4314C14.6151 26.1926 15.8912 26.3152 17.0508 26.7835C18.2105 27.2518 19.2016 28.0449 19.899 29.0624C20.5963 30.0799 20.9686 31.2762 20.9686 32.5C20.9676 34.1407 20.2986 35.714 19.1086 36.8741C17.9187 38.0343 16.305 38.6865 14.6221 38.6875Z" fill="#426AB3"/>
<defs>
<linearGradient id="paint0_linear_1_679" x1="25.3919" y1="0" x2="25.3919" y2="49" gradientUnits="userSpaceOnUse">
<stop stop-color="#4BA6DD" stop-opacity="0.36"/>
<stop offset="1" stop-color="#4BA6DD" stop-opacity="0"/>
</linearGradient>
</defs>
</svg>
