<svg width="59" height="52" viewBox="0 0 59 52" fill="none" xmlns="http://www.w3.org/2000/svg">
<ellipse cx="33.6111" cy="24.5" rx="25.1293" ry="24.5" fill="url(#paint0_linear_1_668)"/>
<path d="M15.4933 36.875H21.984V38.9844H15.4933V36.875Z" fill="#426AB3"/>
<path d="M30.2328 38.9848H24.1476V40.0395C24.1476 40.6223 23.6636 41.0942 23.0658 41.0942H14.4116C13.8138 41.0942 13.3298 40.6223 13.3298 40.0395V38.9848H7.2445C5.8458 38.9848 4.6088 38.1155 4.16594 36.8219L0.276337 25.4434V48.477C0.276337 50.2216 1.73223 51.6411 3.52167 51.6411H33.9557C35.7451 51.6411 37.201 50.2216 37.201 48.477V25.4442L33.3111 36.8219C32.8685 38.1155 31.6315 38.9848 30.2328 38.9848Z" fill="#426AB3"/>
<path d="M23.0655 20H14.4113C12.6219 20 11.166 21.4194 11.166 23.1641V24.2188H2.13736L6.21741 36.154C6.3653 36.5855 6.7783 36.875 7.24425 36.875H13.3295V35.8203C13.3295 35.2375 13.8135 34.7656 14.4113 34.7656H23.0655C23.6633 34.7656 24.1473 35.2375 24.1473 35.8203V36.875H30.2326C30.6985 36.875 31.1115 36.5855 31.2594 36.154L35.3397 24.2188H26.3109V23.1641C26.3109 21.4194 24.855 20 23.0655 20ZM13.3295 24.2188V23.1641C13.3295 22.5821 13.8144 22.1094 14.4113 22.1094H23.0655C23.6625 22.1094 24.1473 22.5821 24.1473 23.1641V24.2188H13.3295Z" fill="#426AB3"/>
<defs>
<linearGradient id="paint0_linear_1_668" x1="33.6111" y1="0" x2="33.6111" y2="49" gradientUnits="userSpaceOnUse">
<stop stop-color="#4BA6DD" stop-opacity="0.36"/>
<stop offset="1" stop-color="#4BA6DD" stop-opacity="0"/>
</linearGradient>
</defs>
</svg>
