<svg width="503" height="502" viewBox="0 0 503 502" fill="none" xmlns="http://www.w3.org/2000/svg">
<g opacity="0.1">
<path d="M502.415 270.814C502.415 269.353 501.319 268.257 499.859 268.257C498.581 268.257 497.487 269.17 497.304 270.448C497.304 270.631 497.122 270.631 497.122 270.814C473.938 367.415 387.046 439.181 283.361 439.181C161.968 439.181 63.3934 340.754 63.3934 219.134C63.3934 115.228 135.499 28.3048 232.248 5.11311C232.248 5.11311 232.978 4.93072 233.526 4.20027L233.709 4.01748C233.891 3.83487 233.891 3.83507 233.891 3.65246C234.074 3.28724 234.256 2.92206 234.256 2.55683C234.256 1.09594 233.161 0 231.701 0H231.518C102.276 10.4089 0.415039 118.515 0.415039 250.544C0.415039 389.511 113.046 502 251.78 502C383.761 502 491.827 400.285 502.232 270.996V270.814C502.415 270.814 502.415 270.814 502.415 270.814Z" fill="#27306C"/>
<path d="M238.415 313.5C238.415 340.86 216.275 363 188.915 363C161.555 363 139.415 340.86 139.415 313.5C139.415 286.14 161.555 264 188.915 264C216.275 264 238.415 286.14 238.415 313.5Z" fill="#27306C"/>
<path d="M481.415 196.44C481.415 99.5636 402.988 21 306.096 21C248.327 21 197.138 49.0193 165.146 92.2383C165.146 92.4214 164.963 92.4212 164.963 92.6043C164.597 92.9706 164.415 93.5203 164.415 94.0697C164.415 95.5348 165.511 96.6333 166.974 96.6333C167.522 96.6333 167.888 96.4503 168.253 96.2672C193.116 82.5324 221.819 74.8406 252.166 74.8406C348.875 74.8406 427.301 153.404 427.301 250.281C427.301 280.68 419.624 309.249 406.095 334.154C405.913 334.521 405.729 335.07 405.729 335.436C405.729 336.901 407.009 338 408.289 338C408.838 338 409.386 337.817 409.752 337.451C409.752 337.451 409.752 337.451 409.935 337.451L410.118 337.268C453.445 305.22 481.415 254.126 481.415 196.44Z" fill="#27306C"/>
</g>
</svg>
