<svg width="16" height="15" viewBox="0 0 16 15" fill="none" xmlns="http://www.w3.org/2000/svg">
<path d="M14.0908 0.453125H12.6923V1.85147C12.6923 2.13114 12.4593 2.31758 12.2262 2.31758C11.9931 2.31758 11.76 2.13114 11.76 1.85147V0.453125H4.30156V1.85147C4.30156 2.13114 4.06848 2.31758 3.83541 2.31758C3.60233 2.31758 3.36925 2.13114 3.36925 1.85147V0.453125H1.97079C1.27156 0.453125 0.758789 1.05907 0.758789 1.85147V3.52948H15.6757V1.85147C15.6757 1.05907 14.8366 0.453125 14.0908 0.453125ZM0.758789 4.50832V13.0382C0.758789 13.8772 1.27156 14.4366 2.0174 14.4366H14.1374C14.8833 14.4366 15.7223 13.8306 15.7223 13.0382V4.50832H0.758789ZM4.90756 12.339H3.78879C3.60233 12.339 3.41587 12.1992 3.41587 11.9661V10.8009C3.41587 10.6144 3.55571 10.428 3.78879 10.428H4.95417C5.14064 10.428 5.3271 10.5678 5.3271 10.8009V11.9661C5.28048 12.1992 5.14064 12.339 4.90756 12.339ZM4.90756 8.14401H3.78879C3.60233 8.14401 3.41587 8.00418 3.41587 7.77112V6.60583C3.41587 6.41939 3.55571 6.23294 3.78879 6.23294H4.95417C5.14064 6.23294 5.3271 6.37278 5.3271 6.60583V7.77112C5.28048 8.00418 5.14064 8.14401 4.90756 8.14401ZM8.63679 12.339H7.47141C7.28495 12.339 7.09848 12.1992 7.09848 11.9661V10.8009C7.09848 10.6144 7.23833 10.428 7.47141 10.428H8.63679C8.82325 10.428 9.00972 10.5678 9.00972 10.8009V11.9661C9.00972 12.1992 8.86987 12.339 8.63679 12.339ZM8.63679 8.14401H7.47141C7.28495 8.14401 7.09848 8.00418 7.09848 7.77112V6.60583C7.09848 6.41939 7.23833 6.23294 7.47141 6.23294H8.63679C8.82325 6.23294 9.00972 6.37278 9.00972 6.60583V7.77112C9.00972 8.00418 8.86987 8.14401 8.63679 8.14401ZM12.366 12.339H11.2006C11.0142 12.339 10.8277 12.1992 10.8277 11.9661V10.8009C10.8277 10.6144 10.9676 10.428 11.2006 10.428H12.366C12.5525 10.428 12.7389 10.5678 12.7389 10.8009V11.9661C12.7389 12.1992 12.5991 12.339 12.366 12.339ZM12.366 8.14401H11.2006C11.0142 8.14401 10.8277 8.00418 10.8277 7.77112V6.60583C10.8277 6.41939 10.9676 6.23294 11.2006 6.23294H12.366C12.5525 6.23294 12.7389 6.37278 12.7389 6.60583V7.77112C12.7389 8.00418 12.5991 8.14401 12.366 8.14401Z" fill="white"/>
</svg>
