<svg width="14" height="18" viewBox="0 0 14 18" fill="none" xmlns="http://www.w3.org/2000/svg">
<path d="M7.08984 0.150391C3.64194 0.150391 0.836884 2.95521 0.836884 6.40278C0.836884 10.6813 6.43267 16.9625 6.67091 17.2278C6.89469 17.477 7.28539 17.4766 7.50877 17.2278C7.74701 16.9625 13.3428 10.6813 13.3428 6.40278C13.3427 2.95521 10.5377 0.150391 7.08984 0.150391ZM7.08984 9.54853C5.35512 9.54853 3.94385 8.13735 3.94385 6.40278C3.94385 4.6682 5.35515 3.25706 7.08984 3.25706C8.82453 3.25706 10.2358 4.66824 10.2358 6.40281C10.2358 8.13739 8.82453 9.54853 7.08984 9.54853Z" fill="white"/>
</svg>
