<svg width="14" height="13" viewBox="0 0 14 13" fill="none" xmlns="http://www.w3.org/2000/svg">
<path d="M11.5112 1.90379C10.2836 0.676102 8.65125 0 6.91504 0C5.17883 0 3.54652 0.676102 2.31883 1.90379C1.09114 3.13148 0.415039 4.76379 0.415039 6.5C0.415039 8.23621 1.09117 9.8685 2.31883 11.0962C3.54649 12.3239 5.17883 13 6.91504 13C8.65125 13 10.2836 12.3239 11.5112 11.0962C12.7389 9.86852 13.415 8.23621 13.415 6.5C13.415 4.76379 12.7389 3.1315 11.5112 1.90379ZM6.91504 6.09375C7.92307 6.09375 8.74316 6.91384 8.74316 7.92188C8.74316 8.75664 8.18058 9.46205 7.41478 9.68C7.35976 9.69566 7.32129 9.74515 7.32129 9.80236V10.1448C7.32129 10.3635 7.15318 10.5518 6.93467 10.562C6.70135 10.573 6.50879 10.3871 6.50879 10.1562V9.80228C6.50879 9.74523 6.47055 9.69571 6.41568 9.6801C5.65315 9.46326 5.09202 8.76317 5.08694 7.93322C5.08559 7.71169 5.25977 7.52215 5.48123 7.5158C5.71104 7.5092 5.89941 7.69354 5.89941 7.92188C5.89941 8.50591 6.39496 8.9764 6.98763 8.93496C7.48793 8.9 7.89319 8.49471 7.92812 7.99442C7.96951 7.40172 7.49905 6.90625 6.91504 6.90625C5.90701 6.90625 5.08691 6.08616 5.08691 5.07812C5.08691 4.24336 5.64949 3.53796 6.4153 3.32C6.47032 3.30434 6.50879 3.25485 6.50879 3.19764V2.85523C6.50879 2.63646 6.6769 2.44824 6.89541 2.43796C7.12873 2.42699 7.32129 2.61287 7.32129 2.84375V3.19772C7.32129 3.25477 7.35953 3.30429 7.4144 3.3199C8.17693 3.53674 8.73806 4.23683 8.74314 5.06678C8.74448 5.28831 8.5703 5.47785 8.34885 5.4842C8.11904 5.4908 7.93066 5.30646 7.93066 5.07812C7.93066 4.49409 7.43512 4.0236 6.84245 4.06504C6.34215 4.1 5.93689 4.50529 5.90195 5.00558C5.86057 5.59828 6.33103 6.09375 6.91504 6.09375Z" fill="#426AB3"/>
</svg>
