<svg width="12" height="15" viewBox="0 0 12 15" fill="none" xmlns="http://www.w3.org/2000/svg">
<path d="M5.91504 0C2.91958 0 0.482605 2.43697 0.482605 5.4324C0.482605 9.14982 5.3441 14.6072 5.55108 14.8377C5.7455 15.0543 6.08493 15.0539 6.27899 14.8377C6.48597 14.6072 11.3475 9.14982 11.3475 5.4324C11.3474 2.43697 8.91047 0 5.91504 0ZM5.91504 8.1656C4.40795 8.1656 3.18187 6.93949 3.18187 5.4324C3.18187 3.92531 4.40798 2.69924 5.91504 2.69924C7.4221 2.69924 8.64817 3.92534 8.64817 5.43243C8.64817 6.93952 7.4221 8.1656 5.91504 8.1656Z" fill="#426AB3"/>
</svg>
