<svg width="21" height="20" viewBox="0 0 21 20" fill="none" xmlns="http://www.w3.org/2000/svg">
<path d="M15.815 20C11.7321 19.9955 7.81765 18.3716 4.93056 15.4845C2.04348 12.5974 0.419539 8.68296 0.415039 4.6C0.416363 3.38041 0.901429 2.21115 1.76381 1.34877C2.62619 0.486393 3.79545 0.00132667 5.01504 3.18862e-06C5.27176 -0.000303006 5.52804 0.0214436 5.78104 0.0650032C6.02754 0.105421 6.2701 0.166982 6.50604 0.249003C6.66614 0.304521 6.8095 0.399811 6.92267 0.525927C7.03585 0.652044 7.11512 0.804851 7.15304 0.970003L8.52204 6.934C8.55916 7.09569 8.55546 7.26407 8.5113 7.42398C8.46713 7.58388 8.38388 7.73029 8.26904 7.85C8.13404 7.991 8.13204 7.994 6.88904 8.644C7.87913 10.8031 9.61057 12.5356 11.769 13.527C12.419 12.286 12.422 12.283 12.569 12.146C12.7572 11.9656 13.0084 11.8659 13.269 11.868C13.343 11.868 13.4168 11.876 13.489 11.892L19.454 13.262C19.6191 13.2991 19.772 13.3779 19.898 13.4908C20.0241 13.6037 20.1191 13.747 20.174 13.907C20.2563 14.1452 20.3179 14.3902 20.358 14.639C20.3985 14.8906 20.4176 15.1452 20.415 15.4C20.4137 16.6196 19.9286 17.7889 19.0663 18.6512C18.2039 19.5136 17.0346 19.9987 15.815 20ZM5.01504 2C4.32548 2 3.66416 2.27393 3.17656 2.76153C2.68897 3.24912 2.41504 3.91044 2.41504 4.6C2.41901 8.15269 3.83207 11.5587 6.34419 14.0708C8.85632 16.583 12.2624 17.996 15.815 18C16.5046 18 17.1659 17.7261 17.6535 17.2385C18.1411 16.7509 18.415 16.0896 18.415 15.4C18.4148 15.2903 18.4078 15.1808 18.394 15.072L13.773 14.012L13.7 14.152C13.63 14.286 13.557 14.425 13.489 14.552C13.121 15.252 12.83 15.809 12.289 15.809C12.143 15.8056 11.9991 15.774 11.865 15.716C10.2083 15.1234 8.70428 14.1692 7.46232 12.9228C6.22037 11.6763 5.27164 10.1689 4.68504 8.51C4.32704 7.724 5.00804 7.369 5.87004 6.919L6.40604 6.638L5.34304 2.021C5.23427 2.00695 5.12471 1.99993 5.01504 2Z" fill="white"/>
</svg>
