<svg width="17" height="21" viewBox="0 0 17 21" fill="none" xmlns="http://www.w3.org/2000/svg">
<path d="M8.41504 20.078C8.1761 20.0777 7.94516 19.9919 7.76404 19.836C7.46404 19.578 0.415039 13.501 0.415039 8C0.415039 5.87827 1.25789 3.84344 2.75818 2.34315C4.25848 0.842855 6.29331 0 8.41504 0C10.5368 0 12.5716 0.842855 14.0719 2.34315C15.5722 3.84344 16.415 5.87827 16.415 8C16.415 13.5 9.36604 19.58 9.06604 19.836C8.88492 19.9919 8.65398 20.0777 8.41504 20.078V20.078ZM8.41504 2.078C6.83463 2.06948 5.31537 2.68818 4.19055 3.79838C3.06573 4.90858 2.4272 6.41961 2.41504 8C2.41504 11.655 6.61504 16.018 8.41504 17.724C10.215 16.019 14.415 11.657 14.415 8C14.4029 6.41961 13.7644 4.90858 12.6395 3.79838C11.5147 2.68818 9.99545 2.06948 8.41504 2.078V2.078ZM8.41504 11.078C7.7228 11.078 7.04612 10.8727 6.47054 10.4881C5.89497 10.1036 5.44637 9.55693 5.18146 8.91739C4.91655 8.27785 4.84724 7.57412 4.98229 6.89518C5.11734 6.21625 5.45068 5.59261 5.94017 5.10313C6.42965 4.61364 7.05329 4.2803 7.73222 4.14525C8.41116 4.0102 9.11489 4.07952 9.75443 4.34442C10.394 4.60933 10.9406 5.05793 11.3252 5.6335C11.7098 6.20908 11.915 6.88577 11.915 7.578C11.915 8.50626 11.5463 9.3965 10.8899 10.0529C10.2335 10.7093 9.3433 11.078 8.41504 11.078V11.078ZM8.41504 6.078C8.11837 6.078 7.82836 6.16597 7.58168 6.3308C7.33501 6.49562 7.14275 6.72989 7.02922 7.00397C6.91569 7.27806 6.88598 7.57966 6.94386 7.87064C7.00174 8.16161 7.1446 8.42888 7.35438 8.63866C7.56416 8.84844 7.83143 8.9913 8.1224 9.04918C8.41338 9.10706 8.71498 9.07735 8.98906 8.96382C9.26315 8.85029 9.49742 8.65803 9.66224 8.41136C9.82707 8.16468 9.91504 7.87467 9.91504 7.578C9.91504 7.18018 9.757 6.79864 9.4757 6.51734C9.19439 6.23604 8.81286 6.078 8.41504 6.078Z" fill="white"/>
</svg>
