<svg width="14" height="13" viewBox="0 0 14 13" fill="none" xmlns="http://www.w3.org/2000/svg">
<path d="M11.9976 0H10.7826V1.21495C10.7826 1.45794 10.5801 1.61994 10.3777 1.61994C10.1752 1.61994 9.97267 1.45794 9.97267 1.21495V0H3.49292V1.21495C3.49292 1.45794 3.29043 1.61994 3.08794 1.61994C2.88544 1.61994 2.68295 1.45794 2.68295 1.21495V0H1.468C0.860522 0 0.415039 0.52648 0.415039 1.21495V2.6729H13.3745V1.21495C13.3745 0.52648 12.6456 0 11.9976 0ZM0.415039 3.52336V10.9346C0.415039 11.6636 0.860522 12.1495 1.5085 12.1495H12.0381C12.6861 12.1495 13.415 11.6231 13.415 10.9346V3.52336H0.415039ZM4.0194 10.3271H3.04744C2.88544 10.3271 2.72345 10.2056 2.72345 10.0031V8.99065C2.72345 8.82866 2.84495 8.66667 3.04744 8.66667H4.0599C4.22189 8.66667 4.38389 8.78816 4.38389 8.99065V10.0031C4.34339 10.2056 4.22189 10.3271 4.0194 10.3271ZM4.0194 6.68224H3.04744C2.88544 6.68224 2.72345 6.56075 2.72345 6.35826V5.34579C2.72345 5.1838 2.84495 5.02181 3.04744 5.02181H4.0599C4.22189 5.02181 4.38389 5.1433 4.38389 5.34579V6.35826C4.34339 6.56075 4.22189 6.68224 4.0194 6.68224ZM7.25928 10.3271H6.24681C6.08482 10.3271 5.92283 10.2056 5.92283 10.0031V8.99065C5.92283 8.82866 6.04432 8.66667 6.24681 8.66667H7.25928C7.42127 8.66667 7.58326 8.78816 7.58326 8.99065V10.0031C7.58326 10.2056 7.46177 10.3271 7.25928 10.3271ZM7.25928 6.68224H6.24681C6.08482 6.68224 5.92283 6.56075 5.92283 6.35826V5.34579C5.92283 5.1838 6.04432 5.02181 6.24681 5.02181H7.25928C7.42127 5.02181 7.58326 5.1433 7.58326 5.34579V6.35826C7.58326 6.56075 7.46177 6.68224 7.25928 6.68224ZM10.4992 10.3271H9.48669C9.3247 10.3271 9.1627 10.2056 9.1627 10.0031V8.99065C9.1627 8.82866 9.2842 8.66667 9.48669 8.66667H10.4992C10.6611 8.66667 10.8231 8.78816 10.8231 8.99065V10.0031C10.8231 10.2056 10.7016 10.3271 10.4992 10.3271ZM10.4992 6.68224H9.48669C9.3247 6.68224 9.1627 6.56075 9.1627 6.35826V5.34579C9.1627 5.1838 9.2842 5.02181 9.48669 5.02181H10.4992C10.6611 5.02181 10.8231 5.1433 10.8231 5.34579V6.35826C10.8231 6.56075 10.7016 6.68224 10.4992 6.68224Z" fill="#426AB3"/>
</svg>
