<svg width="48" height="37" viewBox="0 0 48 37" fill="none" xmlns="http://www.w3.org/2000/svg">
<path opacity="0.1" d="M30.5732 36.376H40.0391C41.8916 36.3718 43.6667 35.7957 44.9766 34.7736C46.2866 33.7515 47.0249 32.3664 47.0303 30.921V16.376C47.0249 14.9305 46.2866 13.5455 44.9766 12.5234C43.6667 11.5013 41.8916 10.9252 40.0391 10.921H34.4001C34.2397 10.9206 34.0812 10.8945 33.9343 10.8444C33.7874 10.7943 33.6553 10.7212 33.5461 10.6296C33.4369 10.538 33.3529 10.4299 33.2994 10.3119C33.2459 10.194 33.224 10.0688 33.2351 9.94397C33.4933 6.81499 35.1035 3.84675 37.8027 1.52397C37.9548 1.39376 38.0552 1.23191 38.0917 1.05804C38.1282 0.884183 38.0992 0.705796 38.0083 0.544533C37.9174 0.38327 37.7684 0.246066 37.5795 0.149578C37.3906 0.0530903 37.1698 0.00146688 36.944 0.000972748H31.1332C30.9556 -0.000668409 30.78 0.0303399 30.6206 0.0914917C30.4612 0.152643 30.3224 0.242222 30.2156 0.352974C27.3843 3.46379 25.9272 7.20902 26.0645 11.023L26.0645 32.842C26.0487 33.3081 26.1544 33.7718 26.3752 34.2051C26.5959 34.6383 26.9271 35.0321 27.3487 35.3625C27.7702 35.693 28.2734 35.9532 28.8277 36.1274C29.382 36.3016 29.9758 36.3862 30.5732 36.376V36.376ZM4.94109 36.376L14.407 36.376C16.2595 36.3718 18.0346 35.7957 19.3445 34.7736C20.6545 33.7515 21.3928 32.3664 21.3982 30.921L21.3982 16.376C21.3928 14.9305 20.6545 13.5455 19.3445 12.5234C18.0346 11.5013 16.2595 10.9252 14.407 10.921H8.76796C8.60763 10.9206 8.44912 10.8945 8.30222 10.8444C8.15533 10.7943 8.02319 10.7212 7.91398 10.6296C7.80477 10.538 7.72082 10.4299 7.66732 10.3119C7.61383 10.194 7.59193 10.0688 7.60298 9.94397C7.8587 6.81586 9.46567 3.84772 12.1616 1.52397C12.3137 1.39376 12.4141 1.23191 12.4506 1.05804C12.4871 0.884183 12.4582 0.705796 12.3672 0.544533C12.2763 0.38327 12.1273 0.246066 11.9384 0.149578C11.7495 0.0530903 11.5288 0.00146688 11.303 0.000972748L5.49218 0.000972748C5.31455 -0.000668409 5.13892 0.0303399 4.97951 0.0914917C4.82009 0.152643 4.68136 0.242222 4.57455 0.352974C1.74325 3.46379 0.286178 7.20902 0.423429 11.023L0.423429 32.842C0.407623 33.3087 0.513583 33.773 0.734873 34.2067C0.956163 34.6405 1.28816 35.0346 1.7107 35.3651C2.13323 35.6957 2.63748 35.9557 3.19281 36.1295C3.74813 36.3033 4.34294 36.3871 4.94109 36.376V36.376Z" fill="#426AB3"/>
</svg>
