<svg width="21" height="20" viewBox="0 0 21 20" fill="none" xmlns="http://www.w3.org/2000/svg">
<path d="M17.6878 0H3.14231C2.41899 0 1.7253 0.287337 1.21384 0.7988C0.702376 1.31026 0.415039 2.00396 0.415039 2.72727L0.415039 17.2727C0.415039 17.996 0.702376 18.6897 1.21384 19.2012C1.7253 19.7127 2.41899 20 3.14231 20H17.6878C18.4111 20 19.1048 19.7127 19.6162 19.2012C20.1277 18.6897 20.415 17.996 20.415 17.2727V2.72727C20.415 2.00396 20.1277 1.31026 19.6162 0.7988C19.1048 0.287337 18.4111 0 17.6878 0V0ZM7.23322 15.8273C7.23337 15.8827 7.22258 15.9377 7.20146 15.989C7.18034 16.0402 7.14931 16.0868 7.11014 16.1261C7.07098 16.1654 7.02445 16.1965 6.97323 16.2178C6.92201 16.2391 6.86709 16.25 6.81163 16.25H5.01504C4.95948 16.2502 4.90445 16.2393 4.85309 16.2181C4.80174 16.1969 4.75507 16.1658 4.71579 16.1265C4.67651 16.0872 4.64538 16.0406 4.62418 15.9892C4.60299 15.9379 4.59216 15.8828 4.59231 15.8273V8.29545C4.59231 8.18334 4.63685 8.07582 4.71613 7.99654C4.7954 7.91726 4.90293 7.87273 5.01504 7.87273H6.81163C6.92355 7.87303 7.03078 7.9177 7.10981 7.99694C7.18884 8.07619 7.23322 8.18354 7.23322 8.29545V15.8273ZM5.91277 7.15909C5.57564 7.15909 5.24608 7.05912 4.96577 6.87182C4.68546 6.68453 4.46699 6.41831 4.33797 6.10685C4.20896 5.79538 4.1752 5.45265 4.24097 5.12201C4.30674 4.79136 4.46909 4.48763 4.70747 4.24925C4.94586 4.01086 5.24958 3.84852 5.58023 3.78275C5.91088 3.71698 6.2536 3.75074 6.56507 3.87975C6.87653 4.00876 7.14275 4.22724 7.33004 4.50755C7.51734 4.78786 7.61731 5.11742 7.61731 5.45455C7.61731 5.90662 7.43773 6.34018 7.11806 6.65984C6.7984 6.97951 6.36484 7.15909 5.91277 7.15909ZM16.6241 15.8568C16.6243 15.9079 16.6143 15.9585 16.5949 16.0057C16.5754 16.0529 16.5468 16.0958 16.5106 16.132C16.4745 16.1681 16.4316 16.1967 16.3844 16.2162C16.3372 16.2357 16.2866 16.2456 16.2355 16.2455H14.3037C14.2526 16.2456 14.202 16.2357 14.1548 16.2162C14.1076 16.1967 14.0647 16.1681 14.0285 16.132C13.9924 16.0958 13.9638 16.0529 13.9443 16.0057C13.9248 15.9585 13.9149 15.9079 13.915 15.8568V12.3284C13.915 11.8011 14.0696 10.0193 12.5366 10.0193C11.3491 10.0193 11.1071 11.2386 11.0594 11.7864V15.8614C11.0594 15.9635 11.0192 16.0615 10.9475 16.1342C10.8759 16.2069 10.7785 16.2485 10.6764 16.25H8.81049C8.75951 16.25 8.70903 16.2399 8.66194 16.2204C8.61485 16.2008 8.57209 16.1722 8.53609 16.1361C8.50009 16.1 8.47157 16.0571 8.45216 16.01C8.43276 15.9629 8.42284 15.9123 8.42299 15.8614V8.2625C8.42284 8.21152 8.43276 8.16101 8.45216 8.11386C8.47157 8.06672 8.50009 8.02386 8.53609 7.98776C8.57209 7.95166 8.61485 7.92301 8.66194 7.90347C8.70903 7.88392 8.75951 7.87386 8.81049 7.87386H10.6764C10.7795 7.87386 10.8783 7.91481 10.9512 7.98769C11.0241 8.06058 11.065 8.15943 11.065 8.2625V8.91932C11.5059 8.25682 12.1594 7.74773 13.5537 7.74773C16.6423 7.74773 16.6219 10.6318 16.6219 12.2159L16.6241 15.8568Z" fill="white"/>
</svg>
