<svg width="16" height="14" viewBox="0 0 16 14" fill="none" xmlns="http://www.w3.org/2000/svg">
<path d="M10.6668 0.726383C10.619 0.664428 10.5604 0.61482 10.4946 0.580844C10.4289 0.546867 10.3576 0.529297 10.2855 0.529297C10.2134 0.529297 10.1422 0.546867 10.0764 0.580844C10.0107 0.61482 9.95203 0.664428 9.90428 0.726383C9.80366 0.854743 9.74799 1.02127 9.74799 1.19389C9.74799 1.36652 9.80366 1.53304 9.90428 1.6614L13.7712 6.42893H1.18326C1.11046 6.43174 1.03887 6.45104 0.972599 6.48572C0.906329 6.52039 0.846691 6.56976 0.797116 6.63097C0.747541 6.69219 0.709008 6.76405 0.683735 6.84242C0.658462 6.92078 0.646947 7.00411 0.649854 7.0876C0.649854 7.45433 1.18326 7.75562 1.18326 7.75562H13.7712L9.90699 12.5096C9.80734 12.6396 9.75237 12.8067 9.75237 12.9798C9.75237 13.1528 9.80734 13.3199 9.90699 13.4499C9.95475 13.5118 10.0134 13.5614 10.0792 13.5954C10.1449 13.6294 10.2162 13.6469 10.2883 13.6469C10.3603 13.6469 10.4316 13.6294 10.4973 13.5954C10.5631 13.5614 10.6218 13.5118 10.6695 13.4499L15.4511 7.55407C15.5551 7.4276 15.6129 7.26037 15.6129 7.08656C15.6129 6.91276 15.5551 6.74552 15.4511 6.61905L10.6668 0.726383Z" fill="white" stroke="white" stroke-width="0.5"/>
</svg>
