<svg width="16" height="16" viewBox="0 0 16 16" fill="none" xmlns="http://www.w3.org/2000/svg">
<path d="M13.531 2.49389C12.1179 1.08089 10.239 0.302734 8.24056 0.302734C6.24211 0.302734 4.36325 1.08089 2.95013 2.49389C1.53701 3.90689 0.758789 5.78559 0.758789 7.78387C0.758789 9.78215 1.53704 11.6608 2.95013 13.0738C4.36322 14.4869 6.24211 15.265 8.24056 15.265C10.239 15.265 12.1179 14.4868 13.531 13.0738C14.9441 11.6608 15.7223 9.78215 15.7223 7.78387C15.7223 5.78559 14.9441 3.90692 13.531 2.49389ZM8.24056 7.3163C9.40085 7.3163 10.3448 8.26018 10.3448 9.42036C10.3448 10.3811 9.69726 11.193 8.81578 11.4439C8.75245 11.4619 8.70817 11.5189 8.70817 11.5847V11.9788C8.70817 12.2306 8.51467 12.4472 8.26315 12.459C7.9946 12.4717 7.77295 12.2577 7.77295 11.992V11.5846C7.77295 11.5189 7.72894 11.462 7.66578 11.444C6.78807 11.1944 6.14219 10.3886 6.13634 9.43343C6.13479 9.17846 6.33528 8.9603 6.59019 8.953C6.85471 8.9454 7.07153 9.15756 7.07153 9.42036C7.07153 10.0926 7.64193 10.6341 8.32412 10.5864C8.89998 10.5461 9.36645 10.0797 9.40666 9.50385C9.4543 8.8217 8.91278 8.25144 8.24056 8.25144C7.08027 8.25144 6.13631 7.30756 6.13631 6.14737C6.13631 5.1866 6.78387 4.37472 7.66534 4.12387C7.72867 4.10584 7.77295 4.04888 7.77295 3.98304V3.58894C7.77295 3.33715 7.96645 3.12052 8.21797 3.10869C8.48652 3.09606 8.70817 3.31 8.70817 3.57573V3.98313C8.70817 4.04879 8.75218 4.10578 8.81534 4.12375C9.69305 4.37332 10.3389 5.17909 10.3448 6.13431C10.3463 6.38928 10.1458 6.60743 9.89093 6.61474C9.62641 6.62233 9.40959 6.41017 9.40959 6.14737C9.40959 5.47518 8.83919 4.93367 8.157 4.98136C7.58114 5.02161 7.11467 5.48807 7.07446 6.06388C7.02682 6.74604 7.56834 7.3163 8.24056 7.3163Z" fill="white"/>
</svg>
