<svg width="22" height="15" viewBox="0 0 22 15" fill="none" xmlns="http://www.w3.org/2000/svg">
<path d="M21.9911 12.6004C21.9918 12.8715 21.9378 13.1401 21.8322 13.3898C21.7266 13.6396 21.5717 13.8655 21.3767 14.0539C21.1818 14.2424 20.9507 14.3895 20.6975 14.4865C20.4443 14.5835 20.1741 14.6283 19.9031 14.6184H2.50311C2.23213 14.6283 1.96193 14.5835 1.7087 14.4865C1.45548 14.3895 1.22445 14.2424 1.02947 14.0539C0.834487 13.8655 0.679567 13.6396 0.573998 13.3898C0.468429 13.1401 0.414386 12.8715 0.415107 12.6004V2.01838C0.414386 1.74722 0.468429 1.47871 0.573998 1.22894C0.679567 0.979168 0.834487 0.75329 1.02947 0.564844C1.22445 0.376399 1.45548 0.229267 1.7087 0.132273C1.96193 0.0352793 2.23213 -0.00958055 2.50311 0.000383715H19.9031C20.1741 -0.00958055 20.4443 0.0352793 20.6975 0.132273C20.9507 0.229267 21.1818 0.376399 21.3767 0.564844C21.5717 0.75329 21.7266 0.979168 21.8322 1.22894C21.9378 1.47871 21.9918 1.74722 21.9911 2.01838V12.6004Z" fill="#ED3432"/>
<path d="M2.50311 0.000383715H19.9031C20.1741 -0.00958055 20.4443 0.0352793 20.6975 0.132273C20.9507 0.229267 21.1818 0.376399 21.3768 0.564844C21.5717 0.75329 21.7267 0.979168 21.8322 1.22894C21.9378 1.47871 21.9918 1.74722 21.9911 2.01838V12.6004C21.9606 13.1623 21.7095 13.6894 21.2925 14.0673C20.8755 14.4451 20.3263 14.6432 19.7641 14.6184" fill="#DD0000"/>
<path d="M2.50311 0.000383715H19.9031C20.1741 -0.00958055 20.4443 0.0352793 20.6975 0.132273C20.9507 0.229267 21.1818 0.376399 21.3768 0.564844C21.5717 0.75329 21.7267 0.979168 21.8322 1.22894C21.9378 1.47871 21.9918 1.74722 21.9911 2.01838V5.91838" fill="#CC0202"/>
<path d="M21.9911 12.5633C22.0015 12.8387 21.9544 13.1132 21.8527 13.3694C21.751 13.6255 21.5969 13.8576 21.4004 14.0508C21.2039 14.2441 20.9692 14.3942 20.7114 14.4915C20.4536 14.5889 20.1783 14.6314 19.9031 14.6163H2.5031C2.22831 14.6185 1.95583 14.5659 1.70154 14.4617C1.44725 14.3576 1.21623 14.2038 1.02191 14.0095C0.827599 13.8152 0.673879 13.5842 0.569702 13.3299C0.465524 13.0756 0.412971 12.8031 0.415101 12.5283" fill="#CC0202"/>
<path d="M11.2047 3.44531L12.1047 6.26431H15.1047L12.7047 8.10832L13.6047 10.9623L11.2047 9.22232L8.80469 10.9973L9.7047 8.07431L7.30469 6.26431H10.2977L11.2047 3.44531Z" fill="#FDCE0C"/>
<path d="M12.1081 6.26431L11.2081 3.44531L10.3081 6.26431H10.2081L12.8881 8.63031L12.7141 8.03831L15.1141 6.26332L12.1081 6.26431Z" fill="#FC9C10"/>
</svg>
