<svg width="27" height="19" viewBox="0 0 27 19" fill="none" xmlns="http://www.w3.org/2000/svg">
<path d="M25.8793 2.84852C25.5797 1.73466 24.7015 0.856618 23.5878 0.556691C21.5533 0 13.4147 0 13.4147 0C13.4147 0 5.27656 0 3.24197 0.535584C2.1497 0.835194 1.25007 1.73482 0.950465 2.84852C0.415039 4.88294 0.415039 9.10208 0.415039 9.10208C0.415039 9.10208 0.415039 13.3425 0.950465 15.3556C1.25039 16.4693 2.12827 17.3474 3.24213 17.6473C5.29798 18.2042 13.4151 18.2042 13.4151 18.2042C13.4151 18.2042 21.5533 18.2042 23.5878 17.6686C24.7017 17.3688 25.5797 16.4908 25.8797 15.3771C26.4149 13.3425 26.4149 9.1235 26.4149 9.1235C26.4149 9.1235 26.4364 4.88294 25.8793 2.84852ZM10.8236 12.9999V5.20429L17.5912 9.10208L10.8236 12.9999Z" fill="white"/>
</svg>
